Comme-Extra-Light.ufo
<glyph name="quotedbl" format="1">
  <advance width="608"/>
  <unicode hex="0022"/>
  <outline>
    <contour>
      <point x="161" y="1046" type="line"/>
      <point x="212" y="1046" type="line"/>
      <point x="243" y="1512" type="line"/>
      <point x="118" y="1512" type="line"/>
    </contour>
    <contour>
      <point x="402" y="1046" type="line"/>
      <point x="453" y="1046" type="line"/>
      <point x="485" y="1512" type="line"/>
      <point x="359" y="1512" type="line"/>
    </contour>
  </outline>
</glyph>
<glyph name="numbersign" format="1">
  <advance width="1171"/>
  <unicode hex="0023"/>
  <outline>
    <contour>
      <point x="216" y="-8" type="line"/>
      <point x="296" y="-8" type="line"/>
      <point x="387" y="438" type="line"/>
      <point x="685" y="438" type="line"/>
      <point x="597" y="-8" type="line"/>
      <point x="677" y="-8" type="line"/>
      <point x="767" y="438" type="line"/>
      <point x="972" y="438" type="line"/>
      <point x="985" y="514" type="line"/>
      <point x="782" y="514" type="line"/>
      <point x="876" y="975" type="line"/>
      <point x="1063" y="975" type="line"/>
      <point x="1077" y="1050" type="line"/>
      <point x="891" y="1050" type="line"/>
      <point x="983" y="1497" type="line"/>
      <point x="904" y="1497" type="line"/>
      <point x="810" y="1050" type="line"/>
      <point x="512" y="1050" type="line"/>
      <point x="604" y="1497" type="line"/>
      <point x="522" y="1497" type="line"/>
      <point x="430" y="1050" type="line"/>
      <point x="245" y="1050" type="line"/>
      <point x="235" y="975" type="line"/>
      <point x="414" y="975" type="line"/>
      <point x="321" y="514" type="line"/>
      <point x="147" y="514" type="line"/>
      <point x="136" y="438" type="line"/>
      <point x="306" y="438" type="line"/>
    </contour>
    <contour>
      <point x="402" y="514" type="line"/>
      <point x="496" y="975" type="line"/>
      <point x="794" y="975" type="line"/>
      <point x="701" y="514" type="line"/>
    </contour>
  </outline>
</glyph>
<glyph name="ampersand" format="1">
  <advance width="1467"/>
  <unicode hex="0026"/>
  <outline>
    <contour>
      <point x="1246" y="-24" type="line"/>
      <point x="1312" y="43" type="line"/>
      <point x="618" y="774" type="line"/>
      <point x="822" y="868"/>
      <point x="991" y="982"/>
      <point x="991" y="1166" type="curve" smooth="yes"/>
      <point x="991" y="1357"/>
      <point x="857" y="1474"/>
      <point x="663" y="1475" type="curve" smooth="yes"/>
      <point x="437" y="1476"/>
      <point x="284" y="1352"/>
      <point x="284" y="1168" type="curve" smooth="yes"/>
      <point x="284" y="1041"/>
      <point x="336" y="947"/>
      <point x="470" y="797" type="curve"/>
      <point x="265" y="681"/>
      <point x="157" y="548"/>
      <point x="165" y="351" type="curve" smooth="yes"/>
      <point x="171" y="122"/>
      <point x="343" y="-19"/>
      <point x="645" y="-19" type="curve" smooth="yes"/>
      <point x="1013" y="-19"/>
      <point x="1251" y="312"/>
      <point x="1361" y="565" type="curve"/>
      <point x="1290" y="615" type="line"/>
      <point x="1124" y="259"/>
      <point x="911" y="73"/>
      <point x="663" y="73" type="curve" smooth="yes"/>
      <point x="417" y="73"/>
      <point x="284" y="178"/>
      <point x="278" y="362" type="curve" smooth="yes"/>
      <point x="272" y="520"/>
      <point x="360" y="631"/>
      <point x="535" y="730" type="curve"/>
    </contour>
    <contour>
      <point x="558" y="838" type="curve"/>
      <point x="414" y="997"/>
      <point x="380" y="1063"/>
      <point x="380" y="1170" type="curve" smooth="yes"/>
      <point x="380" y="1301"/>
      <point x="495" y="1389"/>
      <point x="661" y="1388" type="curve" smooth="yes"/>
      <point x="805" y="1387"/>
      <point x="893" y="1302"/>
      <point x="893" y="1170" type="curve" smooth="yes"/>
      <point x="893" y="1013"/>
      <point x="727" y="918"/>
    </contour>
  </outline>
</glyph>
<glyph name="asterisk" format="1">
  <advance width="1109"/>
  <unicode hex="002A"/>
  <outline>
    <contour>
      <point x="350" y="602" type="line"/>
      <point x="549" y="978" type="line"/>
      <point x="763" y="603" type="line"/>
      <point x="847" y="656"/>
      <point x="781" y="621"/>
      <point x="866" y="674" type="curve"/>
      <point x="728" y="850"/>
      <point x="650" y="961"/>
      <point x="610" y="1016" type="curve"/>
      <point x="984" y="1100" type="line"/>
      <point x="949" y="1222" type="line"/>
      <point x="585" y="1070" type="line"/>
      <point x="624" y="1482" type="line"/>
      <point x="487" y="1482" type="line"/>
      <point x="524" y="1070" type="line"/>
      <point x="161" y="1222" type="line"/>
      <point x="129" y="1100" type="line"/>
      <point x="495" y="1016" type="line"/>
      <point x="249" y="674" type="line"/>
    </contour>
  </outline>
</glyph>
<glyph name="comma" format="1">
  <advance width="518"/>
  <unicode hex="002C"/>
  <outline>
    <contour>
      <point x="171" y="-296" type="curve"/>
      <point x="230" y="-296" type="line"/>
      <point x="230" y="-296"/>
      <point x="323" y="132"/>
      <point x="323" y="162" type="curve"/>
      <point x="323" y="211" type="line"/>
      <point x="189" y="211" type="line"/>
      <point x="189" y="136"/>
      <point x="171" y="-296"/>
    </contour>
  </outline>
</glyph>
<glyph name="slash" format="1">
  <advance width="999"/>
  <unicode hex="002F"/>
  <outline>
    <contour>
      <point x="131" y="-149" type="line"/>
      <point x="216" y="-149" type="line"/>
      <point x="902" y="1560" type="line"/>
      <point x="814" y="1560" type="line"/>
    </contour>
  </outline>
</glyph>
<glyph name="semicolon" format="1">
  <advance width="553"/>
  <unicode hex="003B"/>
  <outline>
    <contour>
      <point x="203" y="-296" type="curve"/>
      <point x="263" y="-296" type="line"/>
      <point x="263" y="-296"/>
      <point x="356" y="132"/>
      <point x="356" y="162" type="curve"/>
      <point x="356" y="211" type="line"/>
      <point x="222" y="211" type="line"/>
      <point x="222" y="136"/>
      <point x="203" y="-296"/>
    </contour>
    <contour>
      <point x="286" y="865" type="curve" smooth="yes"/>
      <point x="357" y="865"/>
      <point x="377" y="916"/>
      <point x="377" y="961" type="curve" smooth="yes"/>
      <point x="377" y="1005"/>
      <point x="357" y="1056"/>
      <point x="286" y="1056" type="curve" smooth="yes"/>
      <point x="212" y="1056"/>
      <point x="192" y="1005"/>
      <point x="192" y="961" type="curve" smooth="yes"/>
      <point x="192" y="916"/>
      <point x="214" y="865"/>
    </contour>
  </outline>
</glyph>
<glyph name="equal" format="1">
  <advance width="1057"/>
  <unicode hex="003D"/>
  <outline>
    <contour>
      <point x="132" y="939" type="line"/>
      <point x="132" y="838" type="line"/>
      <point x="929" y="838" type="line"/>
      <point x="929" y="939" type="line"/>
    </contour>
    <contour>
      <point x="132" y="556" type="line"/>
      <point x="132" y="455" type="line"/>
      <point x="929" y="455" type="line"/>
      <point x="929" y="556" type="line"/>
    </contour>
  </outline>
</glyph>
<glyph name="greater" format="1">
  <advance width="1189"/>
  <unicode hex="003E"/>
  <outline>
    <contour>
      <point x="129" y="1023" type="line"/>
      <point x="928" y="607" type="line"/>
      <point x="126" y="231" type="line"/>
      <point x="126" y="124" type="line"/>
      <point x="1062" y="566" type="line"/>
      <point x="1062" y="638" type="line"/>
      <point x="129" y="1132" type="line"/>
    </contour>
  </outline>
</glyph>
<glyph name="B" format="1">
  <advance width="1366"/>
  <unicode hex="0042"/>
  <outline>
    <contour>
      <point x="674" y="1456" type="move" name="top"/>
    </contour>
    <contour>
      <point x="564" y="-12" type="curve" smooth="yes"/>
      <point x="1098" y="-12"/>
      <point x="1239" y="125"/>
      <point x="1239" y="412" type="curve" smooth="yes"/>
      <point x="1239" y="622"/>
      <point x="1114" y="751"/>
      <point x="843" y="785" type="curve"/>
      <point x="843" y="753" type="line"/>
      <point x="1120" y="809"/>
      <point x="1180" y="935"/>
      <point x="1180" y="1102" type="curve" smooth="yes"/>
      <point x="1180" y="1302"/>
      <point x="1105" y="1466"/>
      <point x="576" y="1466" type="curve" smooth="yes"/>
      <point x="474" y="1466"/>
      <point x="355" y="1459"/>
      <point x="216" y="1446" type="curve"/>
      <point x="216" y="3" type="line"/>
      <point x="347" y="-7"/>
      <point x="463" y="-12"/>
    </contour>
    <contour>
      <point x="338" y="50" type="line"/>
      <point x="338" y="765" type="line"/>
      <point x="288" y="727" type="line"/>
      <point x="649" y="727" type="line" smooth="yes"/>
      <point x="969" y="727"/>
      <point x="1118" y="645"/>
      <point x="1118" y="405" type="curve" smooth="yes"/>
      <point x="1118" y="192"/>
      <point x="1055" y="84"/>
      <point x="595" y="84" type="curve" smooth="yes"/>
      <point x="510" y="84"/>
      <point x="411" y="87"/>
      <point x="296" y="94" type="curve"/>
    </contour>
    <contour>
      <point x="338" y="784" type="line"/>
      <point x="338" y="1405" type="line"/>
      <point x="290" y="1358" type="line"/>
      <point x="407" y="1366"/>
      <point x="508" y="1371"/>
      <point x="594" y="1371" type="curve" smooth="yes"/>
      <point x="968" y="1371"/>
      <point x="1070" y="1296"/>
      <point x="1070" y="1094" type="curve" smooth="yes"/>
      <point x="1070" y="864"/>
      <point x="910" y="821"/>
      <point x="707" y="821" type="curve" smooth="yes"/>
      <point x="289" y="821" type="line"/>
    </contour>
  </outline>
</glyph>
<glyph name="P" format="1">
  <advance width="1235"/>
  <unicode hex="0050"/>
  <outline>
    <contour>
      <point x="634" y="1455" type="move" name="top"/>
    </contour>
    <contour>
      <point x="216" y="1446" type="curve"/>
      <point x="216" y="0" type="line"/>
      <point x="338" y="0" type="line"/>
      <point x="338" y="739" type="line"/>
      <point x="281" y="703" type="line"/>
      <point x="984" y="645"/>
      <point x="1134" y="786"/>
      <point x="1134" y="1095" type="curve" smooth="yes"/>
      <point x="1134" y="1410"/>
      <point x="941" y="1510"/>
    </contour>
    <contour>
      <point x="280" y="1358" type="line"/>
      <point x="883" y="1404"/>
      <point x="1019" y="1340"/>
      <point x="1019" y="1096" type="curve" smooth="yes"/>
      <point x="1019" y="820"/>
      <point x="908" y="754"/>
      <point x="280" y="794" type="curve"/>
      <point x="338" y="758" type="line"/>
      <point x="338" y="1412" type="line"/>
    </contour>
  </outline>
</glyph>
<glyph name="R" format="1">
  <advance width="1373"/>
  <unicode hex="0052"/>
  <outline>
    <contour>
      <point x="700" y="1456" type="move" name="top"/>
    </contour>
    <contour>
      <point x="706" y="0" type="move" name="bot"/>
    </contour>
    <contour>
      <point x="216" y="0" type="line"/>
      <point x="338" y="0" type="line"/>
      <point x="338" y="759" type="line"/>
      <point x="303" y="721" type="line"/>
      <point x="846" y="722" type="line"/>
      <point x="790" y="765" type="line"/>
      <point x="1145" y="0" type="line"/>
      <point x="1266" y="0" type="line"/>
      <point x="1266" y="16" type="line"/>
      <point x="913" y="779" type="line"/>
      <point x="890" y="726" type="line"/>
      <point x="1107" y="761"/>
      <point x="1221" y="864"/>
      <point x="1219" y="1101" type="curve" smooth="yes"/>
      <point x="1215" y="1421"/>
      <point x="1052" y="1509"/>
      <point x="216" y="1446" type="curve"/>
    </contour>
    <contour>
      <point x="338" y="779" type="line"/>
      <point x="338" y="1394" type="line"/>
      <point x="296" y="1359" type="line"/>
      <point x="998" y="1414"/>
      <point x="1105" y="1333"/>
      <point x="1106" y="1096" type="curve" smooth="yes"/>
      <point x="1107" y="889"/>
      <point x="1042" y="811"/>
      <point x="726" y="811" type="curve" smooth="yes"/>
      <point x="306" y="811" type="line"/>
    </contour>
  </outline>
</glyph>
<glyph name="U" format="1">
  <advance width="1451"/>
  <unicode hex="0055"/>
  <outline>
    <contour>
      <point x="729" y="1455" type="move" name="top"/>
    </contour>
    <contour>
      <point x="826" y="8" type="move" name="ogonek"/>
    </contour>
    <contour>
      <point x="723" y="0" type="move" name="bot"/>
    </contour>
    <contour>
      <point x="1154" y="1456" type="line"/>
      <point x="1154" y="539" type="line" smooth="yes"/>
      <point x="1154" y="241"/>
      <point x="1019" y="78"/>
      <point x="725" y="78" type="curve" smooth="yes"/>
      <point x="415" y="78"/>
      <point x="296" y="242"/>
      <point x="296" y="539" type="curve" smooth="yes"/>
      <point x="296" y="1456" type="line"/>
      <point x="174" y="1456" type="line"/>
      <point x="174" y="543" type="line" smooth="yes"/>
      <point x="174" y="219"/>
      <point x="328" y="-19"/>
      <point x="725" y="-19" type="curve" smooth="yes"/>
      <point x="1118" y="-19"/>
      <point x="1276" y="227"/>
      <point x="1276" y="539" type="curve" smooth="yes"/>
      <point x="1276" y="1456" type="line"/>
    </contour>
  </outline>
</glyph>
<glyph name="asciicircum" format="1">
  <advance width="1258"/>
  <unicode hex="005E"/>
  <outline>
    <contour>
      <point x="589" y="1456" type="line"/>
      <point x="134" y="337" type="line"/>
      <point x="234" y="337" type="line"/>
      <point x="625" y="1313" type="line"/>
      <point x="1022" y="337" type="line"/>
      <point x="1124" y="337" type="line"/>
      <point x="657" y="1456" type="line"/>
    </contour>
  </outline>
</glyph>
<glyph name="a" format="1">
  <advance width="1116"/>
  <unicode hex="0061"/>
  <outline>
    <contour>
      <point x="549" y="1082" type="move" name="top"/>
    </contour>
    <contour>
      <point x="899" y="0" type="move" name="ogonek"/>
    </contour>
    <contour>
      <point x="524" y="0" type="move" name="bot"/>
    </contour>
    <contour>
      <point x="442" y="-16" type="curve" smooth="yes"/>
      <point x="596" y="-20"/>
      <point x="749" y="23"/>
      <point x="875" y="220" type="curve"/>
      <point x="832" y="212" type="line"/>
      <point x="850" y="1" type="line"/>
      <point x="944" y="1" type="line"/>
      <point x="944" y="725" type="line" smooth="yes"/>
      <point x="944" y="1008"/>
      <point x="784" y="1104"/>
      <point x="545" y="1104" type="curve" smooth="yes"/>
      <point x="416" y="1104"/>
      <point x="258" y="1066"/>
      <point x="171" y="1011" type="curve"/>
      <point x="213" y="918" type="line"/>
      <point x="309" y="980"/>
      <point x="441" y="1011"/>
      <point x="549" y="1011" type="curve" smooth="yes"/>
      <point x="732" y="1011"/>
      <point x="825" y="921"/>
      <point x="825" y="741" type="curve" smooth="yes"/>
      <point x="825" y="569" type="line"/>
      <point x="860" y="600" type="line"/>
      <point x="610" y="604" type="line" smooth="yes"/>
      <point x="253" y="608"/>
      <point x="117" y="492"/>
      <point x="117" y="283" type="curve" smooth="yes"/>
      <point x="117" y="94"/>
      <point x="249" y="-13"/>
    </contour>
    <contour>
      <point x="448" y="76" type="curve" smooth="yes"/>
      <point x="335" y="80"/>
      <point x="237" y="142"/>
      <point x="237" y="283" type="curve" smooth="yes"/>
      <point x="237" y="437"/>
      <point x="302" y="522"/>
      <point x="621" y="520" type="curve" smooth="yes"/>
      <point x="848" y="518" type="line"/>
      <point x="825" y="545" type="line"/>
      <point x="825" y="223" type="line"/>
      <point x="839" y="278" type="line"/>
      <point x="729" y="120"/>
      <point x="596" y="70"/>
    </contour>
  </outline>
</glyph>
<glyph name="h" format="1">
  <advance width="1190"/>
  <unicode hex="0068"/>
  <outline>
    <contour>
      <point x="614" y="1320" type="move" name="top"/>
    </contour>
    <contour>
      <point x="271" y="1265" type="move" name="mid"/>
    </contour>
    <contour>
      <point x="181" y="0" type="line"/>
      <point x="302" y="0" type="line"/>
      <point x="302" y="631" type="line" smooth="yes"/>
      <point x="302" y="803"/>
      <point x="378" y="1012"/>
      <point x="656" y="1012" type="curve" smooth="yes"/>
      <point x="836" y="1012"/>
      <point x="902" y="896"/>
      <point x="902" y="674" type="curve" smooth="yes"/>
      <point x="902" y="0" type="line"/>
      <point x="1023" y="0" type="line"/>
      <point x="1023" y="672" type="line" smooth="yes"/>
      <point x="1023" y="938"/>
      <point x="908" y="1104"/>
      <point x="673" y="1104" type="curve" smooth="yes"/>
      <point x="485" y="1104"/>
      <point x="334" y="1024"/>
      <point x="268" y="821" type="curve"/>
      <point x="295" y="812" type="line"/>
      <point x="302" y="1132" type="line"/>
      <point x="302" y="1560" type="line"/>
      <point x="181" y="1540" type="line"/>
    </contour>
  </outline>
</glyph>
<glyph name="o" format="1">
  <advance width="1199"/>
  <unicode hex="006F"/>
  <outline>
    <contour>
      <point x="602" y="1082" type="move" name="top"/>
    </contour>
    <contour>
      <point x="679" y="0" type="move" name="ogonek"/>
    </contour>
    <contour>
      <point x="600" y="71" type="curve"/>
      <point x="371" y="71"/>
      <point x="242" y="271"/>
      <point x="242" y="540" type="curve" smooth="yes"/>
      <point x="242" y="822"/>
      <point x="372" y="1012"/>
      <point x="600" y="1012" type="curve"/>
      <point x="828" y="1012"/>
      <point x="958" y="821"/>
      <point x="958" y="539" type="curve" smooth="yes"/>
      <point x="958" y="271"/>
      <point x="828" y="71"/>
    </contour>
    <contour>
      <point x="600" y="-20" type="curve"/>
      <point x="897" y="-20"/>
      <point x="1081" y="212"/>
      <point x="1081" y="541" type="curve" smooth="yes"/>
      <point x="1081" y="883"/>
      <point x="899" y="1104"/>
      <point x="600" y="1104" type="curve"/>
      <point x="301" y="1104"/>
      <point x="118" y="883"/>
      <point x="118" y="541" type="curve" smooth="yes"/>
      <point x="118" y="212"/>
      <point x="302" y="-20"/>
    </contour>
  </outline>
</glyph>
<glyph name="q" format="1">
  <advance width="1221"/>
  <unicode hex="0071"/>
  <outline>
    <contour>
      <point x="920" y="-477" type="line"/>
      <point x="1041" y="-475" type="line"/>
      <point x="1041" y="1082" type="line"/>
      <point x="940" y="1082" type="line"/>
      <point x="928" y="842" type="line"/>
      <point x="964" y="841" type="line"/>
      <point x="926" y="970"/>
      <point x="816" y="1104"/>
      <point x="597" y="1104" type="curve" smooth="yes"/>
      <point x="295" y="1104"/>
      <point x="117" y="877"/>
      <point x="117" y="543" type="curve" smooth="yes"/>
      <point x="117" y="210"/>
      <point x="297" y="-21"/>
      <point x="592" y="-20" type="curve" smooth="yes"/>
      <point x="782" y="-20"/>
      <point x="918" y="87"/>
      <point x="970" y="217" type="curve"/>
      <point x="927" y="225" type="line"/>
      <point x="920" y="-89" type="line"/>
    </contour>
    <contour>
      <point x="593" y="72" type="curve" smooth="yes"/>
      <point x="364" y="72"/>
      <point x="241" y="252"/>
      <point x="241" y="543" type="curve" smooth="yes"/>
      <point x="241" y="831"/>
      <point x="369" y="1012"/>
      <point x="595" y="1012" type="curve" smooth="yes"/>
      <point x="739" y="1012"/>
      <point x="856" y="944"/>
      <point x="923" y="803" type="curve"/>
      <point x="923" y="259" type="line"/>
      <point x="867" y="142"/>
      <point x="745" y="72"/>
    </contour>
  </outline>
</glyph>
<glyph name="w" format="1">
  <advance width="1507"/>
  <unicode hex="0077"/>
  <outline>
    <contour>
      <point x="755" y="1082" type="move" name="top"/>
    </contour>
    <contour>
      <point x="1350" y="1082" type="line"/>
      <point x="1106" y="85" type="line"/>
      <point x="1140" y="85" type="line"/>
      <point x="817" y="1065" type="line"/>
      <point x="690" y="1065" type="line"/>
      <point x="372" y="85" type="line"/>
      <point x="406" y="85" type="line"/>
      <point x="161" y="1082" type="line"/>
      <point x="50" y="1082" type="line"/>
      <point x="336" y="0" type="line"/>
      <point x="438" y="0" type="line"/>
      <point x="769" y="1008" type="line"/>
      <point x="743" y="1008" type="line"/>
      <point x="1074" y="0" type="line"/>
      <point x="1173" y="0" type="line"/>
      <point x="1457" y="1082" type="line"/>
    </contour>
  </outline>
</glyph>
<glyph name="x" format="1">
  <advance width="1028"/>
  <unicode hex="0078"/>
  <outline>
    <contour>
      <point x="849" y="1082" type="line"/>
      <point x="514" y="602" type="line"/>
      <point x="466" y="566" type="line"/>
      <point x="50" y="0" type="line"/>
      <point x="178" y="0" type="line"/>
      <point x="524" y="479" type="line"/>
      <point x="578" y="526" type="line"/>
      <point x="977" y="1082" type="line"/>
    </contour>
    <contour>
      <point x="79" y="1082" type="line"/>
      <point x="842" y="0" type="line"/>
      <point x="975" y="0" type="line"/>
      <point x="214" y="1082" type="line"/>
    </contour>
  </outline>
</glyph>
<glyph name="section" format="1">
  <advance width="1055"/>
  <unicode hex="00A7"/>
  <outline>
    <contour>
      <point x="502" y="-61" type="curve" smooth="yes"/>
      <point x="701" y="-61"/>
      <point x="877" y="27"/>
      <point x="877" y="235" type="curve" smooth="yes"/>
      <point x="877" y="336"/>
      <point x="831" y="418"/>
      <point x="742" y="470" type="curve"/>
      <point x="826" y="517"/>
      <point x="882" y="577"/>
      <point x="882" y="680" type="curve" smooth="yes"/>
      <point x="882" y="820"/>
      <point x="800" y="880"/>
      <point x="578" y="960" type="curve" smooth="yes"/>
      <point x="346" y="1044"/>
      <point x="279" y="1064"/>
      <point x="279" y="1199" type="curve" smooth="yes"/>
      <point x="279" y="1328"/>
      <point x="389" y="1393"/>
      <point x="551" y="1393" type="curve" smooth="yes"/>
      <point x="649" y="1393"/>
      <point x="744" y="1365"/>
      <point x="815" y="1331" type="curve"/>
      <point x="842" y="1411" type="line"/>
      <point x="753" y="1451"/>
      <point x="650" y="1475"/>
      <point x="542" y="1475" type="curve" smooth="yes"/>
      <point x="333" y="1475"/>
      <point x="177" y="1378"/>
      <point x="177" y="1198" type="curve" smooth="yes"/>
      <point x="177" y="1096"/>
      <point x="218" y="1026"/>
      <point x="315" y="970" type="curve"/>
      <point x="236" y="921"/>
      <point x="179" y="854"/>
      <point x="179" y="752" type="curve" smooth="yes"/>
      <point x="179" y="605"/>
      <point x="260" y="557"/>
      <point x="470" y="486" type="curve" smooth="yes"/>
      <point x="733" y="396"/>
      <point x="778" y="335"/>
      <point x="778" y="237" type="curve" smooth="yes"/>
      <point x="778" y="87"/>
      <point x="658" y="23"/>
      <point x="510" y="23" type="curve" smooth="yes"/>
      <point x="401" y="23"/>
      <point x="294" y="51"/>
      <point x="197" y="99" type="curve"/>
      <point x="183" y="10" type="line"/>
      <point x="280" y="-35"/>
      <point x="395" y="-61"/>
    </contour>
    <contour>
      <point x="667" y="513" type="curve"/>
      <point x="655" y="518"/>
      <point x="569" y="549"/>
      <point x="511" y="567" type="curve" smooth="yes"/>
      <point x="322" y="634"/>
      <point x="279" y="653"/>
      <point x="279" y="756" type="curve" smooth="yes"/>
      <point x="279" y="854"/>
      <point x="344" y="902"/>
      <point x="402" y="928" type="curve"/>
      <point x="406" y="926"/>
      <point x="490" y="894"/>
      <point x="540" y="878" type="curve" smooth="yes"/>
      <point x="686" y="825"/>
      <point x="787" y="775"/>
      <point x="787" y="683" type="curve" smooth="yes"/>
      <point x="787" y="577"/>
      <point x="716" y="545"/>
    </contour>
  </outline>
</glyph>
<glyph name="cedilla" format="1">
  <advance width="643"/>
  <unicode hex="00B8"/>
  <outline>
    <contour>
      <point x="336" y="4" type="move" name="_bot"/>
    </contour>
    <contour>
      <point x="299" y="-392" type="curve" smooth="yes"/>
      <point x="444" y="-392"/>
      <point x="548" y="-317"/>
      <point x="548" y="-200" type="curve" smooth="yes"/>
      <point x="548" y="-56"/>
      <point x="405" y="-13"/>
      <point x="281" y="-60" type="curve"/>
      <point x="282" y="-100" type="line"/>
      <point x="446" y="-68"/>
      <point x="473" y="-149"/>
      <point x="471" y="-204" type="curve" smooth="yes"/>
      <point x="465" y="-335"/>
      <point x="285" y="-359"/>
      <point x="172" y="-298" type="curve"/>
      <point x="148" y="-360" type="line"/>
      <point x="194" y="-381"/>
      <point x="244" y="-392"/>
    </contour>
  </outline>
</glyph>
<glyph name="ordmasculine" format="1">
  <advance width="892"/>
  <unicode hex="00BA"/>
  <outline>
    <contour>
      <point x="112" y="1141" type="curve" smooth="yes"/>
      <point x="112" y="927"/>
      <point x="233" y="768"/>
      <point x="445" y="768" type="curve" smooth="yes"/>
      <point x="645" y="768"/>
      <point x="779" y="930"/>
      <point x="779" y="1141" type="curve" smooth="yes"/>
      <point x="779" y="1363"/>
      <point x="663" y="1520"/>
      <point x="445" y="1520" type="curve" smooth="yes"/>
      <point x="233" y="1520"/>
      <point x="112" y="1360"/>
    </contour>
    <contour>
      <point x="672" y="1139" type="curve" smooth="yes"/>
      <point x="672" y="976"/>
      <point x="599" y="852"/>
      <point x="445" y="852" type="curve" smooth="yes"/>
      <point x="299" y="852"/>
      <point x="226" y="977"/>
      <point x="226" y="1142" type="curve" smooth="yes"/>
      <point x="226" y="1309"/>
      <point x="300" y="1435"/>
      <point x="445" y="1435" type="curve" smooth="yes"/>
      <point x="595" y="1435"/>
      <point x="672" y="1307"/>
    </contour>
  </outline>
</glyph>
<glyph name="guillemotright" format="1">
  <advance width="976"/>
  <unicode hex="00BB"/>
  <outline>
    <contour>
      <point x="239" y="157" type="line"/>
      <point x="516" y="542" type="line"/>
      <point x="240" y="928" type="line"/>
      <point x="144" y="921" type="line"/>
      <point x="412" y="541" type="line"/>
      <point x="142" y="165" type="line"/>
    </contour>
    <contour>
      <point x="568" y="157" type="line"/>
      <point x="844" y="542" type="line"/>
      <point x="568" y="928" type="line"/>
      <point x="472" y="921" type="line"/>
      <point x="740" y="541" type="line"/>
      <point x="471" y="165" type="line"/>
    </contour>
  </outline>
</glyph>
<glyph name="onequarter" format="1">
  <advance width="1678"/>
  <unicode hex="00BC"/>
  <outline>
    <contour>
      <point x="122" y="648" type="line"/>
      <point x="525" y="648" type="line"/>
      <point x="525" y="726" type="line"/>
      <point x="381" y="726" type="line"/>
      <point x="381" y="1498" type="line"/>
      <point x="300" y="1498" type="line"/>
      <point x="255" y="1454"/>
      <point x="163" y="1415"/>
      <point x="114" y="1398" type="curve"/>
      <point x="114" y="1316" type="line"/>
      <point x="161" y="1334"/>
      <point x="244" y="1367"/>
      <point x="281" y="1392" type="curve"/>
      <point x="281" y="726" type="line"/>
      <point x="122" y="726" type="line"/>
    </contour>
    <contour>
      <point x="1381" y="-1" type="line"/>
      <point x="1475" y="-1" type="line"/>
      <point x="1475" y="208" type="line"/>
      <point x="1600" y="208" type="line"/>
      <point x="1593" y="283" type="line"/>
      <point x="1477" y="283" type="line"/>
      <point x="1477" y="839" type="line"/>
      <point x="1371" y="839" type="line"/>
      <point x="982" y="272" type="line"/>
      <point x="982" y="208" type="line"/>
      <point x="1381" y="208" type="line"/>
    </contour>
    <contour>
      <point x="389" y="0" type="line"/>
      <point x="487" y="0" type="line"/>
      <point x="1373" y="1506" type="line"/>
      <point x="1274" y="1506" type="line"/>
    </contour>
    <contour>
      <point x="1086" y="283" type="line"/>
      <point x="1381" y="719" type="line"/>
      <point x="1381" y="283" type="line"/>
    </contour>
  </outline>
</glyph>
<glyph name="onehalf" format="1">
  <advance width="1711"/>
  <unicode hex="00BD"/>
  <outline>
    <contour>
      <point x="1080" y="0" type="line"/>
      <point x="1589" y="0" type="line"/>
      <point x="1589" y="86" type="line"/>
      <point x="1204" y="86" type="line"/>
      <point x="1260" y="142"/>
      <point x="1379" y="252"/>
      <point x="1416" y="289" type="curve" smooth="yes"/>
      <point x="1538" y="406"/>
      <point x="1600" y="482"/>
      <point x="1600" y="604" type="curve" smooth="yes"/>
      <point x="1600" y="760"/>
      <point x="1483" y="851"/>
      <point x="1332" y="851" type="curve" smooth="yes"/>
      <point x="1206" y="851"/>
      <point x="1099" y="788"/>
      <point x="1044" y="682" type="curve"/>
      <point x="1108" y="629" type="line"/>
      <point x="1168" y="721"/>
      <point x="1240" y="761"/>
      <point x="1331" y="761" type="curve" smooth="yes"/>
      <point x="1431" y="761"/>
      <point x="1500" y="701"/>
      <point x="1500" y="601" type="curve" smooth="yes"/>
      <point x="1500" y="520"/>
      <point x="1462" y="459"/>
      <point x="1351" y="347" type="curve" smooth="yes"/>
      <point x="1310" y="306"/>
      <point x="1157" y="155"/>
      <point x="1080" y="81" type="curve"/>
    </contour>
    <contour>
      <point x="122" y="648" type="line"/>
      <point x="525" y="648" type="line"/>
      <point x="525" y="726" type="line"/>
      <point x="381" y="726" type="line"/>
      <point x="381" y="1498" type="line"/>
      <point x="300" y="1498" type="line"/>
      <point x="255" y="1454"/>
      <point x="163" y="1415"/>
      <point x="114" y="1398" type="curve"/>
      <point x="114" y="1316" type="line"/>
      <point x="161" y="1334"/>
      <point x="244" y="1367"/>
      <point x="281" y="1392" type="curve"/>
      <point x="281" y="726" type="line"/>
      <point x="122" y="726" type="line"/>
    </contour>
    <contour>
      <point x="375" y="0" type="line"/>
      <point x="474" y="0" type="line"/>
      <point x="1359" y="1506" type="line"/>
      <point x="1260" y="1506" type="line"/>
    </contour>
  </outline>
</glyph>
<glyph name="Thorn" format="1">
  <advance width="1194"/>
  <unicode hex="00DE"/>
  <outline>
    <contour>
      <point x="211" y="0" type="line"/>
      <point x="333" y="0" type="line"/>
      <point x="333" y="480" type="line"/>
      <point x="282" y="442" type="line"/>
      <point x="626" y="442" type="line" smooth="yes"/>
      <point x="934" y="442"/>
      <point x="1063" y="568"/>
      <point x="1063" y="819" type="curve" smooth="yes"/>
      <point x="1063" y="1064"/>
      <point x="884" y="1158"/>
      <point x="631" y="1158" type="curve" smooth="yes"/>
      <point x="291" y="1158" type="line"/>
      <point x="332" y="1124" type="line"/>
      <point x="332" y="1471" type="line"/>
      <point x="211" y="1471" type="line"/>
    </contour>
    <contour>
      <point x="332" y="498" type="line"/>
      <point x="332" y="1096" type="line"/>
      <point x="291" y="1065" type="line"/>
      <point x="628" y="1065" type="line" smooth="yes"/>
      <point x="813" y="1065"/>
      <point x="941" y="1012"/>
      <point x="941" y="820" type="curve" smooth="yes"/>
      <point x="941" y="597"/>
      <point x="847" y="535"/>
      <point x="633" y="535" type="curve" smooth="yes"/>
      <point x="280" y="535" type="line"/>
    </contour>
  </outline>
</glyph>
<glyph name="dotaccent" format="1">
  <advance width="347"/>
  <unicode hex="02D9"/>
  <outline>
    <contour>
      <point x="170" y="1082" type="move" name="_top"/>
    </contour>
    <contour>
      <point x="262" y="1414" type="curve" smooth="yes"/>
      <point x="262" y="1472"/>
      <point x="232" y="1504"/>
      <point x="171" y="1504" type="curve" smooth="yes"/>
      <point x="109" y="1504"/>
      <point x="78" y="1472"/>
      <point x="78" y="1414" type="curve" smooth="yes"/>
      <point x="78" y="1355"/>
      <point x="109" y="1323"/>
      <point x="171" y="1323" type="curve" smooth="yes"/>
      <point x="232" y="1323"/>
      <point x="262" y="1355"/>
    </contour>
  </outline>
</glyph>
<glyph name="hungarumlaut" format="1">
  <advance width="715"/>
  <unicode hex="02DD"/>
  <outline>
    <contour>
      <point x="314" y="1057" type="move" name="_top"/>
    </contour>
    <contour>
      <point x="177" y="1241" type="line"/>
      <point x="252" y="1241" type="line"/>
      <point x="400" y="1560" type="line"/>
      <point x="294" y="1560" type="line"/>
    </contour>
    <contour>
      <point x="398" y="1241" type="line"/>
      <point x="474" y="1241" type="line"/>
      <point x="668" y="1560" type="line"/>
      <point x="549" y="1560" type="line"/>
    </contour>
  </outline>
</glyph>
<glyph name="endash" format="1">
  <advance width="1329"/>
  <unicode hex="2013"/>
  <outline>
    <contour>
      <point x="130" y="560" type="line"/>
      <point x="1199" y="560" type="line"/>
      <point x="1199" y="663" type="line"/>
      <point x="130" y="663" type="line"/>
    </contour>
  </outline>
</glyph>
<glyph name="perthousand" format="1">
  <advance width="2505"/>
  <unicode hex="2030"/>
  <outline>
    <contour>
      <point x="2060" y="69" type="curve" smooth="yes"/>
      <point x="1893" y="69"/>
      <point x="1837" y="197"/>
      <point x="1837" y="371" type="curve" smooth="yes"/>
      <point x="1837" y="541"/>
      <point x="1893" y="670"/>
      <point x="2060" y="670" type="curve" smooth="yes"/>
      <point x="2225" y="670"/>
      <point x="2280" y="547"/>
      <point x="2280" y="371" type="curve" smooth="yes"/>
      <point x="2280" y="202"/>
      <point x="2226" y="69"/>
    </contour>
    <contour>
      <point x="2057" y="-8" type="curve" smooth="yes"/>
      <point x="2281" y="-8"/>
      <point x="2377" y="158"/>
      <point x="2377" y="371" type="curve" smooth="yes"/>
      <point x="2377" y="588"/>
      <point x="2284" y="749"/>
      <point x="2057" y="749" type="curve" smooth="yes"/>
      <point x="1837" y="749"/>
      <point x="1740" y="585"/>
      <point x="1740" y="371" type="curve" smooth="yes"/>
      <point x="1740" y="158"/>
      <point x="1833" y="-8"/>
    </contour>
    <component base="percent" xOffset="4"/>
  </outline>
</glyph>
<glyph name="uni2074" format="1">
  <advance width="709"/>
  <unicode hex="2074"/>
  <outline>
    <contour>
      <point x="445" y="644" type="line"/>
      <point x="542" y="644" type="line"/>
      <point x="540" y="867" type="line"/>
      <point x="667" y="867" type="line"/>
      <point x="666" y="940" type="line"/>
      <point x="543" y="940" type="line"/>
      <point x="543" y="1506" type="line"/>
      <point x="438" y="1506" type="line"/>
      <point x="84" y="946" type="line"/>
      <point x="84" y="867" type="line"/>
      <point x="445" y="867" type="line"/>
    </contour>
    <contour>
      <point x="181" y="940" type="line"/>
      <point x="447" y="1384" type="line"/>
      <point x="445" y="940" type="line"/>
    </contour>
  </outline>
</glyph>
<glyph name="estimated" format="1">
  <advance width="849"/>
  <unicode hex="212E"/>
  <outline>
    <contour>
      <point x="101" y="458" type="curve" smooth="yes"/>
      <point x="101" y="186"/>
      <point x="261" y="-19"/>
      <point x="586" y="-19" type="curve" smooth="yes"/>
      <point x="762" y="-19"/>
      <point x="876" y="57"/>
      <point x="961" y="158" type="curve"/>
      <point x="917" y="201" type="line"/>
      <point x="834" y="112"/>
      <point x="739" y="43"/>
      <point x="586" y="43" type="curve" smooth="yes"/>
      <point x="391" y="43"/>
      <point x="287" y="206"/>
      <point x="286" y="441" type="curve"/>
      <point x="968" y="441" type="line"/>
      <point x="968" y="736"/>
      <point x="842" y="933"/>
      <point x="571" y="933" type="curve" smooth="yes"/>
      <point x="297" y="933"/>
      <point x="101" y="729"/>
    </contour>
    <contour>
      <point x="873" y="509" type="curve"/>
      <point x="288" y="509" type="line"/>
      <point x="301" y="731"/>
      <point x="429" y="882"/>
      <point x="576" y="882" type="curve" smooth="yes"/>
      <point x="754" y="882"/>
      <point x="873" y="708"/>
    </contour>
  </outline>
</glyph>
<glyph name="uni2206" format="1">
  <advance width="1326"/>
  <unicode hex="2206"/>
  <outline>
    <contour>
      <point x="602" y="1515" type="line"/>
      <point x="90" y="84" type="line"/>
      <point x="90" y="0" type="line"/>
      <point x="1239" y="0" type="line"/>
      <point x="1239" y="84" type="line"/>
      <point x="728" y="1515" type="line"/>
    </contour>
    <contour>
      <point x="691" y="1265" type="line"/>
      <point x="1097" y="129" type="line"/>
      <point x="217" y="129" type="line"/>
      <point x="625" y="1265" type="line"/>
      <point x="657" y="1381" type="line"/>
    </contour>
  </outline>
</glyph>
<glyph name="summation" format="1">
  <advance width="1238"/>
  <unicode hex="2211"/>
  <outline>
    <contour>
      <point x="128" y="1518" type="line"/>
      <point x="128" y="1442" type="line"/>
      <point x="690" y="613" type="line"/>
      <point x="105" y="-229" type="line"/>
      <point x="105" y="-302" type="line"/>
      <point x="1128" y="-302" type="line"/>
      <point x="1128" y="-176" type="line"/>
      <point x="250" y="-176" type="line"/>
      <point x="856" y="615" type="line"/>
      <point x="270" y="1402" type="line"/>
      <point x="1087" y="1402" type="line"/>
      <point x="1087" y="1518" type="line"/>
    </contour>
  </outline>
</glyph>
<glyph name="radical" format="1">
  <advance width="1199"/>
  <unicode hex="221A"/>
  <outline>
    <contour>
      <point x="1040" y="1690" type="line"/>
      <point x="987" y="1467"/>
      <point x="685" y="268"/>
      <point x="632" y="45" type="curve"/>
      <point x="574" y="217" type="line"/>
      <point x="331" y="875" type="line"/>
      <point x="86" y="821" type="line"/>
      <point x="98" y="738" type="line"/>
      <point x="241" y="768" type="line"/>
      <point x="596" y="-162" type="line"/>
      <point x="691" y="-162" type="line"/>
      <point x="1138" y="1690" type="line"/>
    </contour>
  </outline>
</glyph>
<glyph name="middot" format="1">
  <advance width="479"/>
  <outline>
    <contour>
      <point x="246" y="634" type="move" name="_mid"/>
    </contour>
    <component base="period" xOffset="-18" yOffset="559"/>
  </outline>
</glyph>
